{
    "asset" : {
        "generator" : "Khronos glTF Blender I/O v1.8.19",
        "version" : "2.0"
    },
    "scene" : 0,
    "scenes" : [
        {
            "name" : "Scene",
            "nodes" : [
                4
            ]
        }
    ],
    "nodes" : [
        {
            "mesh" : 0,
            "name" : "bottom",
            "scale" : [
                1.0866214036941528,
                1.0866214036941528,
                1.0866214036941528
            ],
            "translation" : [
                0.00012251720181666315,
                -0.5762599110603333,
                0
            ]
        },
        {
            "mesh" : 1,
            "name" : "cheeks",
            "rotation" : [
                0.7071068286895752,
                0,
                0,
                0.7071068286895752
            ],
            "scale" : [
                0.08539246022701263,
                0.08539246022701263,
                0.08539246022701263
            ],
            "translation" : [
                0.014912445098161697,
                -0.7906476259231567,
                0.8464832305908203
            ]
        },
        {
            "mesh" : 2,
            "name" : "eyes",
            "rotation" : [
                0.7071068286895752,
                0,
                0,
                0.7071068286895752
            ],
            "scale" : [
                0.08539246022701263,
                0.08539246022701263,
                0.08539246022701263
            ],
            "translation" : [
                0.014912445098161697,
                -0.5282211303710938,
                0.8464832305908203
            ]
        },
        {
            "mesh" : 3,
            "name" : "smile",
            "rotation" : [
                0.7071068286895752,
                0,
                0,
                0.7071068286895752
            ],
            "scale" : [
                0.08539246022701263,
                0.08539246022701263,
                0.08539246022701263
            ],
            "translation" : [
                0.014912445098161697,
                -0.5282211303710938,
                0.8464832305908203
            ]
        },
        {
            "children" : [
                0,
                1,
                2,
                3
            ],
            "mesh" : 4,
            "name" : "MUSH",
            "scale" : [
                0.9202835559844971,
                0.9202835559844971,
                0.9202835559844971
            ],
            "translation" : [
                -0.0001127505674958229,
                0.5303226113319397,
                0
            ]
        }
    ],
    "materials" : [
        {
            "doubleSided" : true,
            "name" : "Material.002",
            "pbrMetallicRoughness" : {
                "baseColorTexture" : {
                    "index" : 0
                },
                "metallicFactor" : 0,
                "roughnessFactor" : 0.5
            }
        },
        {
            "doubleSided" : true,
            "name" : "Material.003",
            "pbrMetallicRoughness" : {
                "baseColorFactor" : [
                    0.8000000715255737,
                    0.024212587624788284,
                    0.020762993022799492,
                    1
                ],
                "metallicFactor" : 0,
                "roughnessFactor" : 0.7363636493682861
            }
        },
        {
            "doubleSided" : true,
            "name" : "Material.001",
            "pbrMetallicRoughness" : {
                "baseColorFactor" : [
                    0,
                    0,
                    0,
                    1
                ],
                "metallicFactor" : 0,
                "roughnessFactor" : 0.5
            }
        },
        {
            "doubleSided" : true,
            "name" : "Material.004",
            "pbrMetallicRoughness" : {
                "baseColorFactor" : [
                    0.22661957144737244,
                    0.11271480470895767,
                    0.041171133518218994,
                    1
                ],
                "metallicFactor" : 0,
                "roughnessFactor" : 0.5
            }
        },
        {
            "doubleSided" : true,
            "name" : "Material.005",
            "pbrMetallicRoughness" : {
                "baseColorTexture" : {
                    "index" : 1
                },
                "metallicFactor" : 0,
                "roughnessFactor" : 0.5
            }
        }
    ],
    "meshes" : [
        {
            "name" : "Sphere",
            "primitives" : [
                {
                    "attributes" : {
                        "POSITION" : 0,
                        "NORMAL" : 1,
                        "TEXCOORD_0" : 2
                    },
                    "indices" : 3,
                    "material" : 0
                }
            ]
        },
        {
            "name" : "Cylinder.002",
            "primitives" : [
                {
                    "attributes" : {
                        "POSITION" : 4,
                        "NORMAL" : 5,
                        "TEXCOORD_0" : 6
                    },
                    "indices" : 7,
                    "material" : 1
                }
            ]
        },
        {
            "name" : "Cylinder",
            "primitives" : [
                {
                    "attributes" : {
                        "POSITION" : 8,
                        "NORMAL" : 9,
                        "TEXCOORD_0" : 10
                    },
                    "indices" : 11,
                    "material" : 2
                }
            ]
        },
        {
            "name" : "Cylinder.001",
            "primitives" : [
                {
                    "attributes" : {
                        "POSITION" : 12,
                        "NORMAL" : 13,
                        "TEXCOORD_0" : 14
                    },
                    "indices" : 15,
                    "material" : 3
                }
            ]
        },
        {
            "name" : "Sphere.002",
            "primitives" : [
                {
                    "attributes" : {
                        "POSITION" : 16,
                        "NORMAL" : 17,
                        "TEXCOORD_0" : 18
                    },
                    "indices" : 19,
                    "material" : 4
                }
            ]
        }
    ],
    "textures" : [
        {
            "sampler" : 0,
            "source" : 0
        },
        {
            "sampler" : 0,
            "source" : 1
        }
    ],
    "images" : [
        {
            "bufferView" : 4,
            "mimeType" : "image/png",
            "name" : "Bottom"
        },
        {
            "bufferView" : 21,
            "mimeType" : "image/png",
            "name" : "Hat"
        }
    ],
    "accessors" : [
        {
            "bufferView" : 0,
            "componentType" : 5126,
            "count" : 8736,
            "max" : [
                1.066825270652771,
                0.7182357907295227,
                0.9216484427452087
            ],
            "min" : [
                -1.0668246746063232,
                -0.5771464705467224,
                -0.9216480255126953
            ],
            "type" : "VEC3"
        },
        {
            "bufferView" : 1,
            "componentType" : 5126,
            "count" : 8736,
            "type" : "VEC3"
        },
        {
            "bufferView" : 2,
            "componentType" : 5126,
            "count" : 8736,
            "type" : "VEC2"
        },
        {
            "bufferView" : 3,
            "componentType" : 5123,
            "count" : 47616,
            "type" : "SCALAR"
        },
        {
            "bufferView" : 5,
            "componentType" : 5126,
            "count" : 14336,
            "max" : [
                4.511302947998047,
                1.3506048917770386,
                -0.07231006026268005
            ],
            "min" : [
                -4.519209384918213,
                0.7089734673500061,
                -1.4078340530395508
            ],
            "type" : "VEC3"
        },
        {
            "bufferView" : 6,
            "componentType" : 5126,
            "count" : 14336,
            "type" : "VEC3"
        },
        {
            "bufferView" : 7,
            "componentType" : 5126,
            "count" : 14336,
            "type" : "VEC2"
        },
        {
            "bufferView" : 8,
            "componentType" : 5123,
            "count" : 21504,
            "type" : "SCALAR"
        },
        {
            "bufferView" : 9,
            "componentType" : 5126,
            "count" : 14336,
            "max" : [
                5.55704402923584,
                0.3982008695602417,
                1.2644425630569458
            ],
            "min" : [
                -5.590243339538574,
                -1.0280345678329468,
                -0.46925774216651917
            ],
            "type" : "VEC3"
        },
        {
            "bufferView" : 10,
            "componentType" : 5126,
            "count" : 14336,
            "type" : "VEC3"
        },
        {
            "bufferView" : 11,
            "componentType" : 5126,
            "count" : 14336,
            "type" : "VEC2"
        },
        {
            "bufferView" : 12,
            "componentType" : 5123,
            "count" : 21504,
            "type" : "SCALAR"
        },
        {
            "bufferView" : 13,
            "componentType" : 5126,
            "count" : 2176,
            "max" : [
                1.7162261009216309,
                1.066685676574707,
                1.3258315324783325
            ],
            "min" : [
                -1.732182264328003,
                0.4251270592212677,
                0.4279700517654419
            ],
            "type" : "VEC3"
        },
        {
            "bufferView" : 14,
            "componentType" : 5126,
            "count" : 2176,
            "type" : "VEC3"
        },
        {
            "bufferView" : 15,
            "componentType" : 5126,
            "count" : 2176,
            "type" : "VEC2"
        },
        {
            "bufferView" : 16,
            "componentType" : 5123,
            "count" : 3264,
            "type" : "SCALAR"
        },
        {
            "bufferView" : 17,
            "componentType" : 5126,
            "count" : 8733,
            "max" : [
                0.9926819801330566,
                0.704285740852356,
                0.8995023369789124
            ],
            "min" : [
                -0.9356752038002014,
                -0.9959535598754883,
                -0.9469707608222961
            ],
            "type" : "VEC3"
        },
        {
            "bufferView" : 18,
            "componentType" : 5126,
            "count" : 8733,
            "type" : "VEC3"
        },
        {
            "bufferView" : 19,
            "componentType" : 5126,
            "count" : 8733,
            "type" : "VEC2"
        },
        {
            "bufferView" : 20,
            "componentType" : 5123,
            "count" : 47616,
            "type" : "SCALAR"
        }
    ],
    "bufferViews" : [
        {
            "buffer" : 0,
            "byteLength" : 104832,
            "byteOffset" : 0
        },
        {
            "buffer" : 0,
            "byteLength" : 104832,
            "byteOffset" : 104832
        },
        {
            "buffer" : 0,
            "byteLength" : 69888,
            "byteOffset" : 209664
        },
        {
            "buffer" : 0,
            "byteLength" : 95232,
            "byteOffset" : 279552
        },
        {
            "buffer" : 0,
            "byteLength" : 233535,
            "byteOffset" : 374784
        },
        {
            "buffer" : 0,
            "byteLength" : 172032,
            "byteOffset" : 608320
        },
        {
            "buffer" : 0,
            "byteLength" : 172032,
            "byteOffset" : 780352
        },
        {
            "buffer" : 0,
            "byteLength" : 114688,
            "byteOffset" : 952384
        },
        {
            "buffer" : 0,
            "byteLength" : 43008,
            "byteOffset" : 1067072
        },
        {
            "buffer" : 0,
            "byteLength" : 172032,
            "byteOffset" : 1110080
        },
        {
            "buffer" : 0,
            "byteLength" : 172032,
            "byteOffset" : 1282112
        },
        {
            "buffer" : 0,
            "byteLength" : 114688,
            "byteOffset" : 1454144
        },
        {
            "buffer" : 0,
            "byteLength" : 43008,
            "byteOffset" : 1568832
        },
        {
            "buffer" : 0,
            "byteLength" : 26112,
            "byteOffset" : 1611840
        },
        {
            "buffer" : 0,
            "byteLength" : 26112,
            "byteOffset" : 1637952
        },
        {
            "buffer" : 0,
            "byteLength" : 17408,
            "byteOffset" : 1664064
        },
        {
            "buffer" : 0,
            "byteLength" : 6528,
            "byteOffset" : 1681472
        },
        {
            "buffer" : 0,
            "byteLength" : 104796,
            "byteOffset" : 1688000
        },
        {
            "buffer" : 0,
            "byteLength" : 104796,
            "byteOffset" : 1792796
        },
        {
            "buffer" : 0,
            "byteLength" : 69864,
            "byteOffset" : 1897592
        },
        {
            "buffer" : 0,
            "byteLength" : 95232,
            "byteOffset" : 1967456
        },
        {
            "buffer" : 0,
            "byteLength" : 297860,
            "byteOffset" : 2062688
        }
    ],
    "samplers" : [
        {
            "magFilter" : 9729,
            "minFilter" : 9987
        }
    ],
    "buffers" : [
        {
            "byteLength" : 2360548,
            "uri" : "data:application/octet-stream;base64,"
        }
    ]
}
