{
  "accessors": [
    {
      "bufferView": 2,
      "componentType": 5126,
      "count": 6,
      "max": [
        0.5107089877128601,
        0.22212399542331696,
        1.5471949577331543
      ],
      "min": [
        -0.44357800483703613,
        -0.196493998169899,
        0.9227460026741028
      ],
      "type": "VEC3"
    },
    {
      "bufferView": 1,
      "componentType": 5126,
      "count": 6,
      "max": [
        0.0,
        0.0
      ],
      "min": [
        0.0,
        0.0
      ],
      "type": "VEC2"
    },
    {
      "bufferView": 0,
      "componentType": 5125,
      "count": 6,
      "type": "SCALAR"
    },
    {
      "bufferView": 2,
      "byteOffset": 72,
      "componentType": 5126,
      "count": 288,
      "max": [
        2.2572360038757324,
        2.3156189918518066,
        0.05766399949789047
      ],
      "min": [
        -2.3819940090179443,
        -2.32361102104187,
        -0.3887859880924225
      ],
      "type": "VEC3"
    },
    {
      "bufferView": 2,
      "byteOffset": 3528,
      "componentType": 5126,
      "count": 288,
      "max": [
        0.6854333281517029,
        0.6854333281517029,
        0.7967393398284912
      ],
      "min": [
        -0.6854333281517029,
        -0.6854333281517029,
        -0.9687166213989258
      ],
      "type": "VEC3"
    },
    {
      "bufferView": 1,
      "byteOffset": 48,
      "componentType": 5126,
      "count": 288,
      "max": [
        0.972760021686554,
        0.19118599593639374
      ],
      "min": [
        0.7906010150909424,
        0.01763400062918663
      ],
      "type": "VEC2"
    },
    {
      "bufferView": 0,
      "byteOffset": 24,
      "componentType": 5125,
      "count": 474,
      "type": "SCALAR"
    },
    {
      "bufferView": 2,
      "byteOffset": 6984,
      "componentType": 5126,
      "count": 32,
      "max": [
        2.1042239665985107,
        2.162606954574585,
        0.05766399949789047
      ],
      "min": [
        -2.2289819717407227,
        -2.1705989837646484,
        0.05766399949789047
      ],
      "type": "VEC3"
    },
    {
      "bufferView": 2,
      "byteOffset": 7368,
      "componentType": 5126,
      "count": 32,
      "max": [
        0.604327380657196,
        0.604327380657196,
        0.7967393398284912
      ],
      "min": [
        -0.604327380657196,
        -0.604327380657196,
        0.7967272400856018
      ],
      "type": "VEC3"
    },
    {
      "bufferView": 1,
      "byteOffset": 2352,
      "componentType": 5126,
      "count": 32,
      "max": [
        0.987716019153595,
        1.0132169723510742
      ],
      "min": [
        0.03764199838042259,
        0.06961499899625778
      ],
      "type": "VEC2"
    },
    {
      "bufferView": 0,
      "byteOffset": 1920,
      "componentType": 5125,
      "count": 90,
      "type": "SCALAR"
    },
    {
      "bufferView": 2,
      "byteOffset": 7752,
      "componentType": 5126,
      "count": 1531,
      "max": [
        1.6311229467391968,
        2.4466660022735596,
        5.806787967681885
      ],
      "min": [
        -2.498955011367798,
        -2.0328989028930664,
        1.6738359928131104
      ],
      "type": "VEC3"
    },
    {
      "bufferView": 2,
      "byteOffset": 26124,
      "componentType": 5126,
      "count": 1531,
      "max": [
        0.9998632669448853,
        0.9995371699333191,
        0.9959390163421631
      ],
      "min": [
        -0.9999990463256836,
        -0.9995539784431458,
        -0.9961800575256348
      ],
      "type": "VEC3"
    },
    {
      "bufferView": 1,
      "byteOffset": 2608,
      "componentType": 5126,
      "count": 1531,
      "max": [
        0.9933310151100159,
        0.6200799942016602
      ],
      "min": [
        0.37503600120544434,
        0.0033950000070035458
      ],
      "type": "VEC2"
    },
    {
      "bufferView": 0,
      "byteOffset": 2280,
      "componentType": 5125,
      "count": 6558,
      "type": "SCALAR"
    },
    {
      "bufferView": 2,
      "byteOffset": 44496,
      "componentType": 5126,
      "count": 3199,
      "max": [
        2.4708080291748047,
        0.5101900100708008,
        3.2188100814819336
      ],
      "min": [
        -0.3488270044326782,
        -1.624276041984558,
        0.055052001029253006
      ],
      "type": "VEC3"
    },
    {
      "bufferView": 2,
      "byteOffset": 82884,
      "componentType": 5126,
      "count": 3199,
      "max": [
        0.9999916553497314,
        0.9999696016311646,
        1.0
      ],
      "min": [
        -0.998868465423584,
        -0.999376654624939,
        -1.0
      ],
      "type": "VEC3"
    },
    {
      "bufferView": 1,
      "byteOffset": 14856,
      "componentType": 5126,
      "count": 3199,
      "max": [
        0.9976699948310852,
        0.8098850250244141
      ],
      "min": [
        0.006426000036299229,
        0.5055879950523376
      ],
      "type": "VEC2"
    },
    {
      "bufferView": 0,
      "byteOffset": 28512,
      "componentType": 5125,
      "count": 8502,
      "type": "SCALAR"
    },
    {
      "bufferView": 2,
      "byteOffset": 121272,
      "componentType": 5126,
      "count": 2522,
      "max": [
        1.3221889734268188,
        1.7298040390014648,
        4.681886196136475
      ],
      "min": [
        -0.8745930194854736,
        -1.9050990343093872,
        0.0
      ],
      "type": "VEC3"
    },
    {
      "bufferView": 2,
      "byteOffset": 151536,
      "componentType": 5126,
      "count": 2522,
      "max": [
        0.9998824596405029,
        0.9988592863082886,
        0.9998852014541626
      ],
      "min": [
        -0.9993604421615601,
        -0.999261736869812,
        -0.9999697208404541
      ],
      "type": "VEC3"
    },
    {
      "bufferView": 1,
      "byteOffset": 40448,
      "componentType": 5126,
      "count": 2522,
      "max": [
        0.9945930242538452,
        0.9906749725341797
      ],
      "min": [
        0.0011769999982789159,
        5.900000178371556e-05
      ],
      "type": "VEC2"
    },
    {
      "bufferView": 0,
      "byteOffset": 62520,
      "componentType": 5125,
      "count": 9078,
      "type": "SCALAR"
    }
  ],
  "asset": {
    "extras": {
      "author": "Robukan (https://sketchfab.com/robukan)",
      "license": "CC-BY-4.0 (http://creativecommons.org/licenses/by/4.0/)",
      "source": "https://sketchfab.com/3d-models/yuna-figure-world-of-final-fantasy-9be8455b25ec4e00887657e563f7823a",
      "title": "Yuna Figure (World of Final Fantasy)"
    },
    "generator": "Sketchfab-12.67.0",
    "version": "2.0"
  },
  "bufferViews": [
    {
      "buffer": 0,
      "byteLength": 98832,
      "name": "floatBufferViews",
      "target": 34963
    },
    {
      "buffer": 0,
      "byteLength": 60624,
      "byteOffset": 98832,
      "byteStride": 8,
      "name": "floatBufferViews",
      "target": 34962
    },
    {
      "buffer": 0,
      "byteLength": 181800,
      "byteOffset": 159456,
      "byteStride": 12,
      "name": "floatBufferViews",
      "target": 34962
    }
  ],
  "buffers": [
    {
      "byteLength": 341256,
      "uri": "scene.bin"
    }
  ],
  "images": [
    {
      "uri": "textures/Material_25_baseColor.png"
    },
    {
      "uri": "textures/socle_Yuna_Logo.jpg_baseColor.jpeg"
    }
  ],
  "materials": [
    {
      "doubleSided": true,
      "name": "Material_25",
      "pbrMetallicRoughness": {
        "baseColorTexture": {
          "index": 0
        },
        "metallicFactor": 0.0,
        "roughnessFactor": 0.6
      }
    },
    {
      "doubleSided": true,
      "name": "socle",
      "pbrMetallicRoughness": {
        "baseColorFactor": [
          0.0,
          0.0,
          0.0,
          1.0
        ],
        "metallicFactor": 0.0,
        "roughnessFactor": 0.6
      }
    },
    {
      "doubleSided": true,
      "name": "socle_Yuna_Logo.jpg",
      "pbrMetallicRoughness": {
        "baseColorTexture": {
          "index": 1
        },
        "metallicFactor": 0.0,
        "roughnessFactor": 0.6
      }
    }
  ],
  "meshes": [
    {
      "name": "Object_0",
      "primitives": [
        {
          "attributes": {
            "POSITION": 0,
            "TEXCOORD_0": 1
          },
          "indices": 2,
          "material": 0,
          "mode": 1
        }
      ]
    },
    {
      "name": "Object_1",
      "primitives": [
        {
          "attributes": {
            "NORMAL": 4,
            "POSITION": 3,
            "TEXCOORD_0": 5
          },
          "indices": 6,
          "material": 1,
          "mode": 4
        }
      ]
    },
    {
      "name": "Object_2",
      "primitives": [
        {
          "attributes": {
            "NORMAL": 8,
            "POSITION": 7,
            "TEXCOORD_0": 9
          },
          "indices": 10,
          "material": 2,
          "mode": 4
        }
      ]
    },
    {
      "name": "Object_3",
      "primitives": [
        {
          "attributes": {
            "NORMAL": 12,
            "POSITION": 11,
            "TEXCOORD_0": 13
          },
          "indices": 14,
          "material": 0,
          "mode": 4
        }
      ]
    },
    {
      "name": "Object_4",
      "primitives": [
        {
          "attributes": {
            "NORMAL": 16,
            "POSITION": 15,
            "TEXCOORD_0": 17
          },
          "indices": 18,
          "material": 0,
          "mode": 4
        }
      ]
    },
    {
      "name": "Object_5",
      "primitives": [
        {
          "attributes": {
            "NORMAL": 20,
            "POSITION": 19,
            "TEXCOORD_0": 21
          },
          "indices": 22,
          "material": 0,
          "mode": 4
        }
      ]
    }
  ],
  "nodes": [
    {
      "children": [
        1
      ],
      "matrix": [
        1.0,
        0.0,
        0.0,
        0.0,
        0.0,
        2.220446049250313e-16,
        -1.0,
        0.0,
        0.0,
        1.0,
        2.220446049250313e-16,
        0.0,
        0.0,
        0.0,
        0.0,
        1.0
      ],
      "name": "Sketchfab_model"
    },
    {
      "children": [
        2,
        3,
        4,
        5,
        6,
        7
      ],
      "name": "FigurineYuna2.obj.cleaner.materialmerger.gles"
    },
    {
      "mesh": 0,
      "name": "Object_2"
    },
    {
      "mesh": 1,
      "name": "Object_3"
    },
    {
      "mesh": 2,
      "name": "Object_4"
    },
    {
      "mesh": 3,
      "name": "Object_5"
    },
    {
      "mesh": 4,
      "name": "Object_6"
    },
    {
      "mesh": 5,
      "name": "Object_7"
    }
  ],
  "samplers": [
    {
      "magFilter": 9729,
      "minFilter": 9987,
      "wrapS": 10497,
      "wrapT": 10497
    }
  ],
  "scene": 0,
  "scenes": [
    {
      "name": "Sketchfab_Scene",
      "nodes": [
        0
      ]
    }
  ],
  "textures": [
    {
      "sampler": 0,
      "source": 0
    },
    {
      "sampler": 0,
      "source": 1
    }
  ]
}
